<svg xmlns="http://www.w3.org/2000/svg" version="1.1" xmlns:xlink="http://www.w3.org/1999/xlink" xmlns:svgjs="http://svgjs.dev/svgjs" width="1000" height="623" viewBox="0 0 1000 623"><g transform="matrix(1,0,0,1,-0.6060606060606233,0.2522267206477409)"><svg viewBox="0 0 396 247" data-background-color="#ffffff" preserveAspectRatio="xMidYMid meet" height="623" width="1000" xmlns="http://www.w3.org/2000/svg" xmlns:xlink="http://www.w3.org/1999/xlink"><g id="tight-bounds" transform="matrix(1,0,0,1,0.2400000000000091,-0.09999999999999432)"><svg viewBox="0 0 395.52 247.2" height="247.2" width="395.52"><g><svg></svg></g><g><svg viewBox="0 0 395.52 247.2" height="247.2" width="395.52"><mask id="64f04068-09f3-407a-bf4f-b83f7d708b91"><rect width="640" height="400" fill="white"></rect><g transform="matrix(1,0,0,1,39.55199999999999,76.51077839851024)"><svg viewBox="0 0 316.416 94.17844320297951" height="94.17844320297951" width="316.416"><g><svg viewBox="0 0 316.416 94.17844320297951" height="94.17844320297951" width="316.416"><g><svg viewBox="0 0 316.416 94.17844320297951" height="94.17844320297951" width="316.416"><g><svg viewBox="0 0 316.416 94.17844320297951" height="94.17844320297951" width="316.416"><g id="SvgjsG1061"><svg viewBox="0 0 316.416 94.17844320297951" height="94.17844320297951" width="316.416" id="SvgjsSvg1060"><g><svg viewBox="0 0 316.416 94.17844320297951" height="94.17844320297951" width="316.416"><g transform="matrix(1,0,0,1,0,0)"><svg width="316.416" viewBox="-0.9500000000000002 -44.5 162.07999999999998 48.95" height="94.17844320297951" data-palette-color="#fd7e14"><path d="M10.45 0L3.05 0 3.05-40.5 19.7-40.5 19.7-35.4 10.45-35.4 10.45-23.6 18-23.6 18-18.45 10.45-18.45 10.45 0ZM30.1 0L23.3 0 23.3-28.9 30.1-28.9 30.1 0ZM30.1-33.5L23.3-33.5 23.3-39.15 30.1-39.15 30.1-33.5ZM50.09 0L34.6 0 34.6-4.45 42.95-23.9 35.3-23.9 35.3-28.9 50.15-28.9 50.15-24.95 41.65-5.05 50.09-5.05 50.09 0ZM68.59 0L53.09 0 53.09-4.45 61.44-23.9 53.79-23.9 53.79-28.9 68.64-28.9 68.64-24.95 60.14-5.05 68.59-5.05 68.59 0ZM84.59 0L72.94 0 72.94-40.5 82.89-40.5Q85.59-40.5 87.77-40 89.94-39.5 91.52-38.33 93.09-37.15 93.94-35.15 94.79-33.15 94.79-30.1L94.79-30.1Q94.79-27.65 94.12-25.9 93.44-24.15 92.14-23.13 90.84-22.1 88.89-21.75L88.89-21.75Q91.29-21.35 92.87-20.08 94.44-18.8 95.22-16.75 95.99-14.7 95.99-11.8L95.99-11.8Q95.99-8.9 95.27-6.68 94.54-4.45 93.12-2.98 91.69-1.5 89.57-0.75 87.44 0 84.59 0L84.59 0ZM80.34-18.85L80.34-5.2 83.14-5.2Q86.49-5.2 87.69-6.83 88.89-8.45 88.89-11.85L88.89-11.85Q88.89-14.3 88.32-15.83 87.74-17.35 86.42-18.1 85.09-18.85 82.89-18.85L82.89-18.85 80.34-18.85ZM80.34-35.35L80.34-23.95 82.84-23.95Q85.04-23.95 86.24-24.6 87.44-25.25 87.92-26.6 88.39-27.95 88.39-30L88.39-30Q88.39-32.15 87.67-33.33 86.94-34.5 85.49-34.93 84.04-35.35 81.79-35.35L81.79-35.35 80.34-35.35ZM104.99 0.45L104.99 0.45Q103.29 0.45 102.19-0.43 101.09-1.3 100.59-2.78 100.09-4.25 100.09-5.9L100.09-5.9 100.09-28.9 106.89-28.9 106.89-7.15Q106.89-5.85 107.31-5.13 107.74-4.4 108.89-4.4L108.89-4.4Q109.64-4.4 110.41-4.8 111.19-5.2 111.94-5.75L111.94-5.75 111.94-28.9 118.74-28.9 118.74 0 111.94 0 111.94-2.75Q110.49-1.35 108.74-0.45 106.99 0.45 104.99 0.45ZM138.59 0L123.09 0 123.09-4.45 131.44-23.9 123.79-23.9 123.79-28.9 138.64-28.9 138.64-24.95 130.14-5.05 138.59-5.05 138.59 0ZM157.08 0L141.58 0 141.58-4.45 149.93-23.9 142.28-23.9 142.28-28.9 157.13-28.9 157.13-24.95 148.63-5.05 157.08-5.05 157.08 0Z" opacity="1" transform="matrix(1,0,0,1,0,0)" fill="black" class="wordmark-text-0" id="SvgjsPath1059" stroke-width="7" stroke="black" stroke-linejoin="round"></path></svg></g></svg></g></svg></g></svg></g></svg></g></svg></g></svg></g></mask><g transform="matrix(1,0,0,1,39.55199999999999,76.51077839851024)"><svg viewBox="0 0 316.416 94.17844320297951" height="94.17844320297951" width="316.416"><g><svg viewBox="0 0 316.416 94.17844320297951" height="94.17844320297951" width="316.416"><g><svg viewBox="0 0 316.416 94.17844320297951" height="94.17844320297951" width="316.416"><g><svg viewBox="0 0 316.416 94.17844320297951" height="94.17844320297951" width="316.416"><g id="textblocktransform"><svg viewBox="0 0 316.416 94.17844320297951" height="94.17844320297951" width="316.416" id="textblock"><g><svg viewBox="0 0 316.416 94.17844320297951" height="94.17844320297951" width="316.416"><g transform="matrix(1,0,0,1,0,0)"><svg width="316.416" viewBox="-0.9500000000000002 -44.5 162.07999999999998 48.95" height="94.17844320297951" data-palette-color="#fd7e14"><path d="M10.45 0L3.05 0 3.05-40.5 19.7-40.5 19.7-35.4 10.45-35.4 10.45-23.6 18-23.6 18-18.45 10.45-18.45 10.45 0ZM30.1 0L23.3 0 23.3-28.9 30.1-28.9 30.1 0ZM30.1-33.5L23.3-33.5 23.3-39.15 30.1-39.15 30.1-33.5ZM50.09 0L34.6 0 34.6-4.45 42.95-23.9 35.3-23.9 35.3-28.9 50.15-28.9 50.15-24.95 41.65-5.05 50.09-5.05 50.09 0ZM68.59 0L53.09 0 53.09-4.45 61.44-23.9 53.79-23.9 53.79-28.9 68.64-28.9 68.64-24.95 60.14-5.05 68.59-5.05 68.59 0ZM84.59 0L72.94 0 72.94-40.5 82.89-40.5Q85.59-40.5 87.77-40 89.94-39.5 91.52-38.33 93.09-37.15 93.94-35.15 94.79-33.15 94.79-30.1L94.79-30.1Q94.79-27.65 94.12-25.9 93.44-24.15 92.14-23.13 90.84-22.1 88.89-21.75L88.89-21.75Q91.29-21.35 92.87-20.08 94.44-18.8 95.22-16.75 95.99-14.7 95.99-11.8L95.99-11.8Q95.99-8.9 95.27-6.68 94.54-4.45 93.12-2.98 91.69-1.5 89.57-0.75 87.44 0 84.59 0L84.59 0ZM80.34-18.85L80.34-5.2 83.14-5.2Q86.49-5.2 87.69-6.83 88.89-8.45 88.89-11.85L88.89-11.85Q88.89-14.3 88.32-15.83 87.74-17.35 86.42-18.1 85.09-18.85 82.89-18.85L82.89-18.85 80.34-18.85ZM80.34-35.35L80.34-23.95 82.84-23.95Q85.04-23.95 86.24-24.6 87.44-25.25 87.92-26.6 88.39-27.95 88.39-30L88.39-30Q88.39-32.15 87.67-33.33 86.94-34.5 85.49-34.93 84.04-35.35 81.79-35.35L81.79-35.35 80.34-35.35ZM104.99 0.45L104.99 0.45Q103.29 0.45 102.19-0.43 101.09-1.3 100.59-2.78 100.09-4.25 100.09-5.9L100.09-5.9 100.09-28.9 106.89-28.9 106.89-7.15Q106.89-5.85 107.31-5.13 107.74-4.4 108.89-4.4L108.89-4.4Q109.64-4.4 110.41-4.8 111.19-5.2 111.94-5.75L111.94-5.75 111.94-28.9 118.74-28.9 118.74 0 111.94 0 111.94-2.75Q110.49-1.35 108.74-0.45 106.99 0.45 104.99 0.45ZM138.59 0L123.09 0 123.09-4.45 131.44-23.9 123.79-23.9 123.79-28.9 138.64-28.9 138.64-24.95 130.14-5.05 138.59-5.05 138.59 0ZM157.08 0L141.58 0 141.58-4.45 149.93-23.9 142.28-23.9 142.28-28.9 157.13-28.9 157.13-24.95 148.63-5.05 157.08-5.05 157.08 0Z" opacity="1" transform="matrix(1,0,0,1,0,0)" fill="#fd7e14" class="wordmark-text-0" data-fill-palette-color="primary" id="text-0"></path></svg></g></svg></g></svg></g></svg></g></svg></g></svg></g></svg></g><g mask="url(#64f04068-09f3-407a-bf4f-b83f7d708b91)"><g transform="matrix(3.1668046240371512, 0, 0, 3.1668046240371512, 55.25379207666842, 1)"><svg xmlns:dc="http://purl.org/dc/elements/1.1/" xmlns:cc="http://creativecommons.org/ns#" xmlns:rdf="http://www.w3.org/1999/02/22-rdf-syntax-ns#" xmlns:svg="http://www.w3.org/2000/svg" xmlns="http://www.w3.org/2000/svg" xmlns:sodipodi="http://sodipodi.sourceforge.net/DTD/sodipodi-0.dtd" xmlns:inkscape="http://www.inkscape.org/namespaces/inkscape" version="1.1" x="0" y="0" viewBox="5.000000099999999 11.285897 89.9999999 77.42820575000002" height="77.42820575000002" width="89.9999999" class="icon-none" data-fill-palette-color="accent" id="none"><path d="M56.292 11.286c-3.168 0-6.37 1.186-8.767 3.584L8.596 53.798c-4.795 4.795-4.795 12.684 0 17.48L22.436 85.118c4.795 4.795 12.684 4.795 17.48 0l9.429-9.429c1.993 2.849 5.294 4.742 9.042 4.742 5.669 0 10.459-4.305 11.083-9.76 0.235 0.022 0.476 0.055 0.717 0.055 1.574 0 3.025-0.434 4.246-1.268 0.788 0.78 1.893 1.268 3.088 1.268 2.258 0 4.101-1.728 4.301-3.915 0.203 0.01 0.401 0 0.606 0 6.884 0 12.572-5.633 12.572-12.516 0-3.553-1.505-6.761-3.915-9.043 0.695-0.762 1.158-1.769 1.158-2.867 0-2.009-1.47-3.67-3.363-4.136 0.127-0.66 0.221-1.345 0.22-2.04 0-3.793-1.972-7.131-4.962-9.098 0.373-0.633 0.607-1.371 0.606-2.151 0-2.365-1.967-4.301-4.356-4.3-0.28 0-0.561 0.059-0.827 0.11-1.204-3.472-4.485-6.01-8.381-6.01-1.792 0-3.447 0.522-4.852 1.433L65.004 14.87C62.607 12.472 59.46 11.286 56.292 11.286z m0 7.003c1.346 0 2.691 0.541 3.75 1.599l2.315 2.316c-0.074 0.454-0.11 0.905-0.11 1.378 0 1.407 0.375 2.732 0.993 3.915l-0.331-0.331-1.82-1.764c-0.755-0.755-1.669-1.252-2.646-1.489-0.489-0.118-0.993-0.153-1.489-0.166-0.496-0.012-0.943 0.021-1.434 0.111-0.981 0.179-2.003 0.543-2.922 1.047-0.919 0.505-1.794 1.132-2.592 1.93a2.233 2.233 0 0 0-0.165 0.166 2.236 2.236 0 0 0 3.308 2.977c0.508-0.508 1.061-0.918 1.599-1.213 0.538-0.295 1.084-0.467 1.544-0.551 0.46-0.084 0.825-0.067 1.103 0 0.278 0.067 0.46 0.184 0.606 0.331l1.765 1.764 1.875 1.82 0.22 0.22c-0.71-0.101-1.413-0.221-2.15-0.22-8.758 0-15.935 7.177-15.936 15.935 0 3.586 1.237 6.874 3.254 9.539-1.053 0.787-1.764 2.021-1.765 3.419 0 1.894 1.251 3.511 2.978 4.08-0.341 0.77-0.574 1.58-0.717 2.426L34.898 80.155c-2.117 2.117-5.382 2.117-7.499 0L13.559 66.315c-2.117-2.117-2.117-5.382 0-7.499l38.984-38.928c1.058-1.058 2.404-1.599 3.749-1.599z m14.888 1.764c2.023 0 3.584 1.526 3.584 3.529 0 1.001-0.399 1.894-1.048 2.536-0.637 0.268-1.25 0.616-1.819 0.993-0.237 0.047-0.464 0.055-0.717 0.055-2.023 0-3.584-1.582-3.584-3.584 0-2.002 1.561-3.529 3.584-3.529z m9.208 3.033c1.071 0 1.93 0.814 1.93 1.874 0 0.39-0.188 0.748-0.386 1.048-0.653-0.247-1.337-0.43-2.04-0.551 0.127-0.589 0.221-1.25 0.22-1.875 0-0.152-0.047-0.291-0.055-0.441 0.109-0.019 0.216-0.055 0.331-0.055z m-2.371 7.444c3.212 0 5.735 2.5 5.735 5.679 0 3.18-2.523 5.735-5.735 5.734-3.212 0-5.735-2.555-5.734-5.734 0-1.775 0.789-3.312 2.04-4.356 0.698-0.263 1.327-0.628 1.93-1.048 0.549-0.171 1.153-0.276 1.764-0.275z m-12.076 0.165c0.617 0.449 1.264 0.82 1.986 1.103-0.32 0.71-0.61 1.426-0.772 2.205-0.854-0.456-1.765-0.862-2.702-1.158-0.018-0.108-0.055-0.217-0.055-0.33 0-0.938 0.653-1.655 1.544-1.82z m-6.23 6.727c5.897 0 10.587 4.745 10.587 10.642 0 5.742-4.465 10.403-10.146 10.642-0.567-0.089-1.174-0.165-1.765-0.166-0.133 0-0.254-0.005-0.386 0-5.075-0.811-8.933-5.162-8.932-10.476 0-5.897 4.745-10.642 10.642-10.642z m28.452 3.143c0.923 0.141 1.599 0.862 1.599 1.82 0 0.53-0.206 1.036-0.552 1.378-0.699-0.449-1.478-0.797-2.26-1.103 0.48-0.645 0.883-1.354 1.213-2.095z m-5.735 6.506c4.023 0 7.223 3.2 7.223 7.224 0 4.023-3.2 7.223-7.223 7.223-4.023 0-7.223-3.2-7.223-7.223 0-4.023 3.2-7.223 7.223-7.224z m-53.209 1.158a2.233 2.233 0 0 0-1.269 0.662l-7.388 7.389c-0.798 0.798-1.425 1.672-1.93 2.591-0.505 0.919-0.868 1.887-1.048 2.867-0.179 0.981-0.182 2 0.055 2.978 0.237 0.978 0.733 1.891 1.489 2.647l1.765 1.819a2.222 2.222 0 1 0 3.142-3.143l-1.819-1.764c-0.147-0.147-0.209-0.329-0.276-0.607-0.067-0.278-0.084-0.643 0-1.102 0.084-0.46 0.256-1.006 0.552-1.544 0.295-0.538 0.706-1.091 1.213-1.599l7.388-7.334a2.233 2.233 0 0 0-1.654-3.86 2.233 2.233 0 0 0-0.22 0z m19.409 11.194c0.73 0.712 1.516 1.368 2.371 1.93-0.525 0.471-1.008 0.983-1.434 1.543-1.071 0-1.875-0.814-1.875-1.874 0-0.698 0.386-1.269 0.938-1.599z m21.559 1.433c1.296 0 2.261 1.02 2.261 2.316 0 1.296-0.965 2.316-2.261 2.316-1.296 0-2.316-1.02-2.316-2.316 0-1.296 1.02-2.316 2.316-2.316z m-12.406 2.978c0.626 0.075 1.284 0.11 1.93 0.11 2.555 0.591 4.466 2.792 4.466 5.514 0 3.18-2.578 5.735-5.79 5.735-3.212 0-5.734-2.555-5.734-5.735 0-2.972 2.219-5.322 5.128-5.624z m19.519 1.875c0.678 0.307 1.415 0.534 2.151 0.716 0 1.06-0.859 1.93-1.93 1.93-0.536 0-1.037-0.209-1.379-0.551 0.486-0.62 0.882-1.345 1.158-2.095z m-41.575 3.528a2.216 2.216 0 0 0-1.378 0.828c-0.508 0.508-1.061 0.918-1.599 1.213-0.538 0.295-1.139 0.412-1.599 0.496-0.46 0.084-0.77 0.067-1.048 0-0.278-0.067-0.515-0.129-0.662-0.276a2.216 2.216 0 0 0-3.143-0.055 2.216 2.216 0 0 0-0.165 0.165 2.216 2.216 0 0 0 0.22 2.978c0.755 0.755 1.669 1.307 2.647 1.544 0.978 0.237 1.997 0.179 2.978 0 0.981-0.179 2.003-0.488 2.922-0.993 0.919-0.505 1.738-1.187 2.536-1.985a2.216 2.216 0 0 0-1.709-3.915z" fill="#fd7e14" fill-opacity="1" stroke="none" marker="none" visibility="visible" display="inline" overflow="visible" text-indent="0" text-transform="none" direction="ltr" block-progression="tb" baseline-shift="baseline" color="#fd7e14" enable-background="accumulate" data-fill-palette-color="accent"></path></svg></g></g></svg></g><defs></defs></svg><rect width="395.52" height="247.2" fill="none" stroke="none" visibility="hidden"></rect></g></svg></g></svg>